<svg width="16" height="16" viewBox="0 0 16 16" fill="none" xmlns="http://www.w3.org/2000/svg">
<path d="M7.99245 3.25802e-05C8.03189 6.15115e-05 8.07132 9.04433e-05 8.11196 0.000120251C9.47671 0.0047028 10.699 0.324841 11.8967 0.977585C11.98 1.02182 11.98 1.02182 12.065 1.06694C13.7913 2.02372 15.1356 3.75088 15.6862 5.64319C15.9025 6.42348 16.004 7.17703 15.9999 7.9867C15.9998 8.02669 15.9996 8.06669 15.9995 8.1079C15.9969 8.69037 15.9758 9.24339 15.8241 9.8088C15.8083 9.87012 15.8083 9.87012 15.7921 9.93269C15.2511 12.0024 13.9834 13.7916 12.14 14.8992C10.8732 15.6383 9.51785 16.004 8.05216 16C8.01272 15.9999 7.97328 15.9999 7.93265 15.9999C6.5686 15.9953 5.3447 15.676 4.14796 15.0224C4.09179 14.9923 4.03562 14.9622 3.97775 14.9312C3.20248 14.4983 2.47704 13.9052 1.91888 13.2136C1.87797 13.1633 1.83706 13.1131 1.7949 13.0613C0.475713 11.4103 -0.183816 9.28704 0.0445492 7.17296C0.263828 5.46549 0.895194 3.89842 2.07768 2.63656C2.18764 2.51953 2.18764 2.51953 2.29267 2.38323C2.4485 2.18993 2.63021 2.03963 2.82113 1.88199C2.87038 1.84125 2.91964 1.80052 2.97039 1.75855C4.42071 0.599156 6.13828 -0.0051123 7.99245 3.25802e-05Z" fill="#212C55"/>
<path d="M6.42492 3.99969C6.89323 4.01144 7.46724 4.8244 7.78074 5.13835C7.85097 5.20856 7.92121 5.27875 7.99146 5.34895C8.13782 5.49524 8.2841 5.64162 8.43033 5.78804C8.61788 5.97585 8.80563 6.16345 8.99344 6.35101C9.13813 6.49554 9.28272 6.64018 9.42728 6.78485C9.49651 6.85411 9.56577 6.92334 9.63507 6.99253C9.73152 7.08888 9.82784 7.18536 9.92412 7.28188C9.95278 7.31045 9.98143 7.33902 10.011 7.36845C10.0371 7.39474 10.0633 7.42103 10.0902 7.44811C10.113 7.47086 10.1357 7.49362 10.1591 7.51706C10.2386 7.60382 10.2998 7.67528 10.3132 7.7946C10.2989 7.9914 10.2635 8.11218 10.1284 8.25866C10.1013 8.28825 10.0742 8.31784 10.0462 8.34832C9.91086 8.49058 9.77425 8.63131 9.6355 8.77028C9.58896 8.81714 9.58896 8.81714 9.54147 8.86495C9.43996 8.96708 9.33829 9.06905 9.23659 9.17099C9.18425 9.22351 9.18425 9.22351 9.13085 9.2771C8.9466 9.46199 8.76223 9.64675 8.57776 9.83141C8.38732 10.0221 8.19728 10.2132 8.00733 10.4043C7.86094 10.5515 7.71427 10.6984 7.56752 10.8452C7.4973 10.9156 7.42719 10.986 7.35718 11.0566C7.2595 11.155 7.16143 11.253 7.06324 11.3509C7.03445 11.3801 7.00565 11.4093 6.97598 11.4394C6.79639 11.6174 6.66182 11.7172 6.40619 11.7545C6.2333 11.7292 6.17469 11.6518 6.06355 11.5216C6.04942 11.5074 6.03528 11.4933 6.02072 11.4787C5.9958 11.3417 5.98804 11.2687 6.02072 11.1361C6.08492 11.0462 6.08492 11.0462 6.17471 10.9504C6.20991 10.9128 6.2451 10.8753 6.28137 10.8365C6.53521 10.5734 6.7938 10.315 7.05281 10.057C7.11468 9.99522 7.17655 9.93342 7.2384 9.87161C7.39989 9.71028 7.56151 9.54908 7.72316 9.3879C7.88863 9.22288 8.05397 9.05773 8.21932 8.8926C8.54279 8.56959 8.86639 8.24671 9.19008 7.92392C9.13455 7.8016 9.07614 7.71377 8.98088 7.61934C8.95566 7.59412 8.93044 7.56891 8.90446 7.54293C8.87687 7.51578 8.84928 7.48864 8.82085 7.46066C8.79173 7.43167 8.76262 7.40268 8.73262 7.37281C8.66943 7.30995 8.60614 7.24718 8.54276 7.1845C8.4425 7.08533 8.34251 6.9859 8.24258 6.88639C8.03043 6.67521 7.81794 6.46437 7.6054 6.25358C7.35913 6.00933 7.113 5.76495 6.86723 5.5202C6.76865 5.42218 6.66983 5.32442 6.57099 5.22667C6.51063 5.16663 6.45029 5.10657 6.38996 5.0465C6.36237 5.01935 6.33477 4.9922 6.30635 4.96423C6.28113 4.93902 6.25591 4.9138 6.22992 4.88783C6.208 4.8661 6.18609 4.84437 6.1635 4.82198C6.05796 4.69741 6.02263 4.59825 6.00198 4.43602C6.02548 4.24467 6.08933 4.18998 6.23487 4.06929C6.2777 4.02646 6.2777 4.02646 6.42492 3.99969Z" fill="white"/>
</svg>
