<svg width="16" height="16" viewBox="0 0 16 16" fill="none" xmlns="http://www.w3.org/2000/svg">
<path d="M8.00755 3.25802e-05C7.96811 6.15115e-05 7.92868 9.04433e-05 7.88804 0.000120251C6.52329 0.0047028 5.30101 0.324841 4.10335 0.977585C4.02002 1.02182 4.02002 1.02182 3.93501 1.06694C2.2087 2.02372 0.864356 3.75088 0.313794 5.64319C0.0974932 6.42348 -0.00404739 7.17703 0.000123024 7.9867C0.000237465 8.02669 0.000351906 8.06669 0.000469208 8.1079C0.00314331 8.69037 0.0241737 9.24339 0.175928 9.8088C0.191745 9.87012 0.191745 9.87012 0.207881 9.93269C0.74891 12.0024 2.01659 13.7916 3.85996 14.8992C5.12682 15.6383 6.48215 16.004 7.94784 16C7.98728 15.9999 8.02672 15.9999 8.06735 15.9999C9.4314 15.9953 10.6553 15.676 11.852 15.0224C11.9082 14.9923 11.9644 14.9622 12.0223 14.9312C12.7975 14.4983 13.523 13.9052 14.0811 13.2136C14.122 13.1633 14.1629 13.1131 14.2051 13.0613C15.5243 11.4103 16.1838 9.28704 15.9555 7.17296C15.7362 5.46549 15.1048 3.89842 13.9223 2.63656C13.8124 2.51953 13.8124 2.51953 13.7073 2.38323C13.5515 2.18993 13.3698 2.03963 13.1789 1.88199C13.1296 1.84125 13.0804 1.80052 13.0296 1.75855C11.5793 0.599156 9.86172 -0.0051123 8.00755 3.25802e-05Z" fill="#1DA638"/>
<path d="M6.42541 3.99969C6.89372 4.01144 7.46773 4.8244 7.78122 5.13835C7.85146 5.20856 7.9217 5.27875 7.99195 5.34895C8.1383 5.49524 8.28459 5.64162 8.43081 5.78804C8.61837 5.97585 8.80612 6.16345 8.99393 6.35101C9.13862 6.49554 9.28321 6.64018 9.42777 6.78485C9.497 6.85411 9.56626 6.92334 9.63556 6.99253C9.73201 7.08888 9.82833 7.18536 9.92461 7.28188C9.95326 7.31045 9.98192 7.33902 10.0114 7.36845C10.0376 7.39474 10.0638 7.42103 10.0907 7.44811C10.1135 7.47086 10.1362 7.49362 10.1596 7.51706C10.2391 7.60382 10.3003 7.67528 10.3137 7.7946C10.2994 7.9914 10.264 8.11218 10.1289 8.25866C10.1018 8.28825 10.0747 8.31784 10.0467 8.34832C9.91134 8.49058 9.77473 8.63131 9.63599 8.77028C9.58945 8.81714 9.58945 8.81714 9.54196 8.86495C9.44045 8.96708 9.33878 9.06905 9.23708 9.17099C9.18474 9.22351 9.18474 9.22351 9.13134 9.2771C8.94709 9.46199 8.76272 9.64675 8.57825 9.83141C8.38781 10.0221 8.19777 10.2132 8.00782 10.4043C7.86143 10.5515 7.71476 10.6984 7.56801 10.8452C7.49779 10.9156 7.42767 10.986 7.35767 11.0566C7.25999 11.155 7.16191 11.253 7.06373 11.3509C7.03493 11.3801 7.00614 11.4093 6.97647 11.4394C6.79688 11.6174 6.66231 11.7172 6.40667 11.7545C6.23379 11.7292 6.17517 11.6518 6.06404 11.5216C6.04991 11.5074 6.03577 11.4933 6.02121 11.4787C5.99629 11.3417 5.98853 11.2687 6.02121 11.1361C6.08541 11.0462 6.08541 11.0462 6.1752 10.9504C6.2104 10.9128 6.24559 10.8753 6.28185 10.8365C6.5357 10.5734 6.79428 10.315 7.05329 10.057C7.11517 9.99522 7.17703 9.93342 7.23889 9.87161C7.40038 9.71028 7.562 9.54908 7.72365 9.3879C7.88911 9.22288 8.05445 9.05773 8.21981 8.8926C8.54327 8.56959 8.86688 8.24671 9.19057 7.92392C9.13504 7.8016 9.07663 7.71377 8.98137 7.61934C8.95615 7.59412 8.93093 7.56891 8.90495 7.54293C8.87736 7.51578 8.84977 7.48864 8.82134 7.46066C8.79222 7.43167 8.7631 7.40268 8.73311 7.37281C8.66992 7.30995 8.60663 7.24718 8.54325 7.1845C8.44299 7.08533 8.343 6.9859 8.24307 6.88639C8.03092 6.67521 7.81843 6.46437 7.60589 6.25358C7.35962 6.00933 7.11349 5.76495 6.86771 5.5202C6.76914 5.42218 6.67031 5.32442 6.57148 5.22667C6.51112 5.16663 6.45078 5.10657 6.39045 5.0465C6.36285 5.01935 6.33526 4.9922 6.30684 4.96423C6.28162 4.93902 6.2564 4.9138 6.23041 4.88783C6.20849 4.8661 6.18657 4.84437 6.16399 4.82198C6.05845 4.69741 6.02312 4.59825 6.00247 4.43602C6.02597 4.24467 6.08982 4.18998 6.23536 4.06929C6.27819 4.02646 6.27819 4.02646 6.42541 3.99969Z" fill="white"/>
</svg>
