<svg width="16" height="16" viewBox="0 0 16 16" fill="none" xmlns="http://www.w3.org/2000/svg">
<g clip-path="url(#clip0_1391_16558)">
<path d="M1.8916 1.29102C3.09301 0.0896043 4.90627 0.31609 5.60059 1.55957L6.25 2.72266C6.68538 3.50278 6.56265 4.55014 5.90039 5.32324L5.76074 5.47461L5.75488 5.48047C5.75273 5.48268 5.75067 5.4855 5.74805 5.48828C5.74255 5.49412 5.73591 5.50142 5.72852 5.50977C5.71384 5.52634 5.69531 5.54763 5.6748 5.57422C5.63354 5.62777 5.58223 5.70276 5.53125 5.79785C5.42869 5.98928 5.32683 6.2646 5.30957 6.61621C5.2744 7.33421 5.59266 8.25081 6.6709 9.3291C7.74867 10.4069 8.66488 10.7253 9.38281 10.6904C9.73448 10.6733 10.0097 10.5712 10.2012 10.4688C10.2965 10.4177 10.3711 10.3665 10.4248 10.3252C10.4517 10.3045 10.4735 10.2862 10.4902 10.2715C10.4986 10.2641 10.5059 10.2574 10.5117 10.252C10.5145 10.2493 10.5173 10.2473 10.5195 10.2451L10.5244 10.2402L10.1719 9.88574L10.5254 10.2393C11.3084 9.4562 12.4452 9.28561 13.2773 9.75L14.4404 10.3994C15.6839 11.0937 15.9104 12.9069 14.709 14.1084C13.9131 14.9043 13.0009 15.4581 12.0479 15.4941C10.255 15.5622 7.15789 15.1149 4.02148 11.9785C0.885137 8.84212 0.437911 5.7451 0.505859 3.95215C0.541988 2.99913 1.0957 2.08691 1.8916 1.29102Z" stroke="#AAAAAA" stroke-linecap="round"/>
</g>
<defs>
<clipPath id="clip0_1391_16558">
<rect width="16" height="16" fill="white"/>
</clipPath>
</defs>
</svg>
