<svg width="92" height="80" viewBox="0 0 92 80" fill="none" xmlns="http://www.w3.org/2000/svg">
<path d="M17.7232 36.2824C22.3234 36.2824 26.0752 32.5421 26.0752 27.9304C26.0752 23.3187 22.3348 19.5784 17.7232 19.5784C13.1115 19.5784 9.37115 23.3188 9.37115 27.9304C9.37115 32.5422 13.1153 36.2824 17.7232 36.2824ZM17.7232 21.4291C21.3169 21.4291 24.2398 24.3519 24.2398 27.9457C24.2398 31.5395 21.317 34.4624 17.7232 34.4624C14.1293 34.4624 11.2065 31.5396 11.2065 27.9457C11.2065 24.3481 14.1293 21.4291 17.7232 21.4291ZM74.3054 36.2824C78.9056 36.2824 82.6574 32.5421 82.6574 27.9304C82.6574 23.3187 78.9171 19.5784 74.3054 19.5784C69.7052 19.5784 65.9534 23.3188 65.9534 27.9304C65.9534 32.5422 69.7053 36.2824 74.3054 36.2824ZM74.3054 21.4291C77.8991 21.4291 80.822 24.3519 80.822 27.9457C80.822 31.5395 77.8992 34.4624 74.3054 34.4624C70.7116 34.4624 67.7888 31.5396 67.7888 27.9457C67.7888 24.3481 70.7116 21.4291 74.3054 21.4291ZM90.9474 51.7527C90.3652 47.7927 88.3793 44.1333 85.3485 41.457C82.2868 38.7539 78.3808 37.2309 74.3203 37.173H74.2895C68.9373 37.2501 63.9937 39.8298 60.824 44.1137C60.1724 43.3348 59.4706 42.5944 58.7033 41.9119C55.1905 38.8041 50.6867 37.0457 46.0167 36.9763H45.9858C41.3278 37.0457 36.8163 38.8041 33.2993 41.9119C32.5281 42.5944 31.8186 43.3348 31.1785 44.1137C28.0089 39.8181 23.0655 37.254 17.7131 37.173H17.6822C13.6257 37.2309 9.70811 38.754 6.65403 41.457C3.62324 44.1408 1.64129 47.7962 1.05513 51.7527C0.777498 53.6499 1.56026 55.4352 3.13738 56.511C7.36348 59.3953 13.6414 60.7178 17.6857 60.7178C20.2229 60.7178 24.4876 60.1356 28.4553 58.516C28.6828 58.732 28.9296 58.9402 29.2072 59.1291C34.0734 62.4568 41.3193 63.9761 45.9884 63.9761C50.658 63.9761 57.8922 62.4646 62.7696 59.1291C63.0472 58.9402 63.294 58.7358 63.5215 58.516C67.4816 60.1355 71.754 60.7178 74.2911 60.7178C78.3399 60.7178 84.6174 59.4068 88.8394 56.511C90.4435 55.4352 91.2224 53.6576 90.9447 51.7527H90.9474ZM4.19948 54.9995C3.1931 54.3093 2.71879 53.2334 2.89617 52.0188C3.97195 44.7157 10.3382 39.1171 17.7229 38.9976C22.6778 39.0747 27.2394 41.5541 30.0422 45.6492C28.4034 48.0784 27.3161 50.8432 26.8842 53.7544C26.7145 54.8997 26.8958 56.0141 27.3662 56.9818C23.9691 58.2851 20.1709 58.8867 17.7224 58.8867C14.5721 58.879 8.37523 57.8452 4.19948 54.9995ZM61.758 57.6061C56.8994 60.9223 49.6854 62.1253 46.0143 62.1253C42.3431 62.1253 35.1253 60.9222 30.2705 57.6061C29.0752 56.7886 28.4852 55.4429 28.7012 54.0124C29.9544 45.483 37.3964 38.9507 46.0145 38.8125C54.6326 38.9514 62.0751 45.4872 63.3277 54.0242C63.536 55.4548 62.9533 56.7964 61.758 57.6061ZM87.8281 54.9995C83.6636 57.8529 77.4632 58.8786 74.3133 58.8786C71.8647 58.8786 68.0666 58.2848 64.6695 56.9737C65.1438 56.0059 65.3212 54.8915 65.1515 53.7463C64.7274 50.8351 63.6322 48.0703 61.9935 45.6411C64.7968 41.5461 69.3584 39.0666 74.3129 38.9895C81.6971 39.1091 88.0636 44.7041 89.1396 52.0108C89.3092 53.2216 88.8268 54.3093 87.8281 54.9995ZM46.0143 35.3961C51.2661 35.3961 55.5385 31.1237 55.5385 25.8719C55.5385 20.62 51.2661 16.3477 46.0143 16.3477C40.7625 16.3477 36.4901 20.62 36.4901 25.8719C36.4901 31.1237 40.7625 35.3961 46.0143 35.3961ZM46.0143 18.1796C50.2597 18.1796 53.7031 21.623 53.7031 25.8684C53.7031 30.1139 50.2597 33.5611 46.0143 33.5611C41.7688 33.5611 38.3254 30.1177 38.3254 25.8723C38.3254 21.6268 41.7688 18.1796 46.0143 18.1796Z" fill="#212C55" stroke="#212C55" stroke-width="0.5"/>
</svg>
