<svg width="16" height="16" viewBox="0 0 16 16" fill="none" xmlns="http://www.w3.org/2000/svg">
<g clip-path="url(#clip0_1391_16562)">
<path d="M13.4277 5.11606V2.45972L10.9675 0H10.8139H5.21668V4.64603C4.81768 4.31441 4.30831 4.11053 3.74915 4.11053H3.23084C2.59347 4.11006 2.01909 4.37066 1.60731 4.78972C1.19503 5.20856 0.942621 5.7875 0.942871 6.42344V13.3364C0.943121 14.8057 2.13722 15.9995 3.60647 16H12.3937C13.8629 15.9995 15.0568 14.8057 15.0573 13.3364V7.57069C15.0568 6.46787 14.3844 5.52034 13.4277 5.11606ZM5.95868 0.741969H10.6603L10.6982 0.779875V2.74375H12.6625L12.6857 2.76694V4.92403C12.5898 4.91341 12.4925 4.90712 12.3937 4.90712H5.95868V0.741969ZM1.75875 6.42344C1.75875 5.61044 2.41787 4.95131 3.23084 4.95131H3.74915C4.56215 4.95131 5.22128 5.61044 5.22128 6.42344V10.1702C5.22128 10.9832 4.56215 11.6424 3.74915 11.6424H3.23084C2.41784 11.6424 1.75875 10.9832 1.75875 10.1702V6.42344ZM14.2165 13.3364C14.2165 14.3431 13.4004 15.1593 12.3937 15.1593H3.60643C2.59975 15.1593 1.78362 14.3431 1.78362 13.3364V11.8421C2.17225 12.1791 2.6775 12.3843 3.23084 12.3843H3.74915C4.97009 12.3843 5.96325 11.3912 5.96325 10.1702V9.56475V7.15334V5.74788H12.3937C13.4004 5.74788 14.2165 6.564 14.2165 7.57072V13.3364Z" fill="#AAAAAA"/>
<path d="M12.3762 8.24023H7.42968C7.15653 8.24023 6.93506 8.46173 6.93506 8.73489C6.93506 9.00808 7.15653 9.22955 7.42968 9.22955H12.3762C12.6494 9.22955 12.8708 9.00808 12.8708 8.73489C12.8708 8.46173 12.6493 8.24023 12.3762 8.24023Z" fill="#AAAAAA"/>
<path d="M12.4406 12H7.49414C7.22098 12 6.99951 12.2215 6.99951 12.4947C6.99951 12.7678 7.22098 12.9893 7.49414 12.9893H12.4406C12.7138 12.9893 12.9353 12.7678 12.9353 12.4947C12.9353 12.2215 12.7138 12 12.4406 12Z" fill="#AAAAAA"/>
</g>
<defs>
<clipPath id="clip0_1391_16562">
<rect width="16" height="16" fill="white"/>
</clipPath>
</defs>
</svg>
