<svg width="80" height="80" viewBox="0 0 80 80" fill="none" xmlns="http://www.w3.org/2000/svg">
<path d="M50.1917 5.71509C50.6813 4.87963 51.721 4.56349 52.5852 4.96118L52.7551 5.05005C63.0005 11.0793 69.1135 21.6026 69.1135 33.1975V33.2024C69.1134 50.9187 57.2668 64.1272 40.3743 66.0891L40.0647 66.1243V71.425H47.1086C48.2131 71.425 49.0821 72.2769 49.0823 73.2932C49.0823 74.3096 48.2132 75.1614 47.1086 75.1614H29.5452C28.4406 75.1614 27.5725 74.3096 27.5725 73.2932C27.5726 72.2769 28.4407 71.425 29.5452 71.425H36.3499V66.3489H35.9602L35.1565 66.3391C31.4146 66.2511 27.772 65.5477 24.3059 64.2424L23.5657 63.9534C22.6086 63.5683 22.1462 62.4751 22.5325 61.5149C22.918 60.5566 24.0138 60.0925 24.97 60.4817H24.9709C28.4539 61.8879 32.1507 62.6008 35.9602 62.6008C52.9882 62.6007 65.3654 50.2236 65.3655 33.1956C65.3655 22.9363 59.9372 13.6215 50.8567 8.27954C49.9658 7.7555 49.6689 6.60717 50.1917 5.71509ZM35.9465 9.19946C49.2706 9.19946 60.0735 20.0688 60.0735 33.3977C60.0734 46.724 49.2753 57.4573 35.9465 57.4573C22.6154 57.4573 11.8128 46.7239 11.8127 33.3977C11.8127 20.0689 22.6179 9.19947 35.9465 9.19946ZM35.9446 12.9456C24.7028 12.9456 15.5588 22.1589 15.5588 33.3977C15.5589 44.6395 24.7037 53.7122 35.9446 53.7122C47.1809 53.712 56.3254 44.6394 56.3254 33.3977C56.3254 22.1591 47.1864 12.9457 35.9446 12.9456Z" fill="#212C55" stroke="white" stroke-width="0.7"/>
</svg>
