<svg width="26" height="26" viewBox="0 0 26 26" fill="none" xmlns="http://www.w3.org/2000/svg">
<g clip-path="url(#clip0_256_2792)">
<path d="M7.72917 5.7084C7.72889 6.26093 7.50913 6.79073 7.11824 7.18123C6.72734 7.57174 6.19733 7.79097 5.64479 7.79069C5.09226 7.79041 4.56246 7.57066 4.17196 7.17976C3.78145 6.78886 3.56222 6.25885 3.5625 5.70632C3.56278 5.15378 3.78253 4.62399 4.17343 4.23348C4.56433 3.84298 5.09434 3.62375 5.64688 3.62402C6.19941 3.6243 6.7292 3.84406 7.11971 4.23495C7.51021 4.62585 7.72944 5.15586 7.72917 5.7084ZM7.79167 9.3334H3.625V22.3751H7.79167V9.3334ZM14.375 9.3334H10.2292V22.3751H14.3333V15.5313C14.3333 11.7188 19.3021 11.3646 19.3021 15.5313V22.3751H23.4167V14.1146C23.4167 7.68756 16.0625 7.92715 14.3333 11.0834L14.375 9.3334Z" fill="white"/>
</g>
<defs>
<clipPath id="clip0_256_2792">
<rect width="25" height="25" fill="white" transform="translate(0.5 0.5)"/>
</clipPath>
</defs>
</svg>
