<svg width="80" height="80" viewBox="0 0 80 80" fill="none" xmlns="http://www.w3.org/2000/svg">
<path d="M77.4301 32.0858L69.7449 17.3683C69.2866 16.5 68.5073 15.8449 67.5732 15.5426C66.6391 15.2403 65.6238 15.3146 64.7437 15.7498L57.2046 19.5191H51.5196L40.9622 14.7422C40.1467 14.3738 39.2263 14.3087 38.367 14.5587L22.6865 19.13L15.2558 15.4148C14.3756 14.9799 13.3604 14.9056 12.4263 15.2079C11.4923 15.5101 10.713 16.165 10.2545 17.0332L2.5693 31.751C2.33885 32.1925 2.19862 32.6754 2.1568 33.1716C2.11498 33.6679 2.17241 34.1674 2.32572 34.6412C2.47904 35.115 2.72518 35.5535 3.04979 35.9312C3.37439 36.3088 3.77095 36.618 4.21633 36.8408L11.8288 40.647L28.8114 53.9265C29.2247 54.2508 29.702 54.484 30.2118 54.6107L48.3234 59.1386C48.618 59.212 48.9206 59.2491 49.2242 59.2491C50.2211 59.2494 51.1775 58.8551 51.8845 58.1523L63.3835 46.6531C63.4067 46.63 63.4287 46.6061 63.45 46.5814L68.2855 40.9245L75.7831 37.1757C76.2285 36.953 76.625 36.6437 76.9497 36.2661C77.2743 35.8884 77.5204 35.4499 77.6737 34.9761C77.827 34.5023 77.8845 34.0027 77.8426 33.5065C77.8008 33.0102 77.6606 32.5273 77.4301 32.0858ZM62.3004 44.0786L49.4849 34.7582C49.2687 34.601 49.0078 34.5173 48.7405 34.5192C48.4732 34.5212 48.2135 34.6087 47.9996 34.7691L43.9997 37.7691C42.4822 38.8982 40.6412 39.5079 38.7497 39.5079C36.8583 39.5079 35.0173 38.8982 33.4998 37.7691L31.8058 36.4987C31.6625 36.3912 31.544 36.2543 31.4583 36.097C31.3726 35.9398 31.3216 35.766 31.3089 35.5874C31.2962 35.4088 31.3221 35.2295 31.3847 35.0617C31.4473 34.894 31.5452 34.7416 31.6718 34.615L43.9014 22.3854C44.1363 22.1517 44.4539 22.0202 44.7852 22.0191H51.2462L51.2491 22.0195L51.2534 22.0191H56.7423L66.0007 39.7496L62.3004 44.0786ZM4.70431 33.8716C4.65266 33.7137 4.63322 33.5471 4.64717 33.3816C4.66111 33.2161 4.70815 33.0551 4.78549 32.9081L12.4707 18.1903C12.5775 17.9877 12.7377 17.8182 12.9338 17.7001C13.13 17.582 13.3547 17.5198 13.5837 17.5203C13.776 17.5201 13.9657 17.5648 14.1376 17.6509L20.8029 20.9834L11.9602 37.9176L5.3345 34.6047C5.18572 34.5309 5.05328 34.428 4.94503 34.3021C4.83678 34.1761 4.75492 34.0297 4.70431 33.8716ZM50.1169 56.3844C49.964 56.5367 49.7743 56.6469 49.5663 56.7045C49.3583 56.7621 49.139 56.765 48.9295 56.7131L30.8179 52.1852C30.648 52.1429 30.489 52.0653 30.3513 51.9572L14.0894 39.2413L23.3289 21.5469L39.0665 16.9589C39.3529 16.8753 39.6598 16.897 39.9317 17.0199L45.4549 19.5192H44.7852C44.2926 19.5178 43.8046 19.6142 43.3495 19.8027C42.8944 19.9912 42.4812 20.2682 42.1338 20.6175L29.9042 32.8471C29.5242 33.227 29.2304 33.684 29.0424 34.1874C28.8545 34.6907 28.777 35.2286 28.815 35.7645C28.8531 36.3005 29.0058 36.822 29.263 37.2937C29.5202 37.7654 29.8757 38.1764 30.3055 38.4988L31.9995 39.7692C33.9507 41.2208 36.3178 42.0047 38.7497 42.0047C41.1816 42.0047 43.5487 41.2208 45.4999 39.7692L48.761 37.3231L60.5815 45.9197L50.1169 56.3844ZM75.2951 34.2065C75.2445 34.3647 75.1627 34.5111 75.0544 34.637C74.9462 34.7629 74.8137 34.8659 74.6649 34.9397L68.0393 38.2525L59.1965 21.3183L65.8618 17.9858C66.1552 17.8407 66.4936 17.8158 66.805 17.9166C67.1164 18.0174 67.3761 18.2358 67.5287 18.5253L75.214 33.2429C75.2913 33.3899 75.3383 33.5509 75.3523 33.7165C75.3662 33.882 75.3468 34.0486 75.2951 34.2065ZM36.2125 64.8222C36.1728 64.9815 36.1021 65.1315 36.0045 65.2635C35.9068 65.3955 35.784 65.5069 35.6432 65.5914C35.5024 65.6759 35.3464 65.7318 35.184 65.7559C35.0215 65.78 34.8559 65.7719 34.6967 65.7319L25.278 63.3775C24.7049 63.2334 24.1736 62.9566 23.7271 62.5694L16.6797 56.4433C16.5554 56.3357 16.4535 56.2047 16.3798 56.0577C16.3062 55.9107 16.2623 55.7507 16.2506 55.5867C16.239 55.4227 16.2597 55.258 16.3118 55.1021C16.3639 54.9461 16.4462 54.802 16.5541 54.6779C16.6619 54.5539 16.7932 54.4523 16.9404 54.379C17.0875 54.3058 17.2477 54.2622 17.4117 54.251C17.5758 54.2397 17.7404 54.2609 17.8962 54.3134C18.052 54.3658 18.1959 54.4485 18.3197 54.5567L25.3675 60.6828C25.5166 60.8118 25.6938 60.9041 25.885 60.9523L35.3028 63.3064C35.6244 63.3868 35.9009 63.5917 36.0715 63.8759C36.2421 64.1602 36.2928 64.5005 36.2125 64.8222Z" fill="#212C55"/>
</svg>
