<svg width="60" height="60" viewBox="0 0 60 60" fill="none" xmlns="http://www.w3.org/2000/svg">
<rect width="60" height="60" rx="30" fill="#E7E7E7"/>
<path fill-rule="evenodd" clip-rule="evenodd" d="M30 25C27.2386 25 25 27.2386 25 30C25 32.7615 27.2386 35 30 35C32.7615 35 35 32.7615 35 30C35 27.2386 32.7615 25 30 25ZM27 30C27 28.3432 28.3432 27 30 27C31.6568 27 33 28.3432 33 30C33 31.6568 31.6568 33 30 33C28.3432 33 27 31.6568 27 30Z" fill="#212C55"/>
<path fill-rule="evenodd" clip-rule="evenodd" d="M30.0001 18.3334C23.9812 18.3334 19.9271 21.939 17.5742 24.9959L17.5317 25.051C16.9996 25.7421 16.5095 26.3786 16.177 27.1312C15.8209 27.9372 15.6667 28.8156 15.6667 30C15.6667 31.1844 15.8209 32.0628 16.177 32.8688C16.5095 33.6215 16.9996 34.258 17.5317 34.9491L17.5742 35.0042C19.9271 38.0611 23.9812 41.6667 30.0001 41.6667C36.0189 41.6667 40.073 38.0611 42.4259 35.0042L42.4683 34.9491C43.0006 34.258 43.4906 33.6215 43.8231 32.8688C44.1793 32.0628 44.3334 31.1844 44.3334 30C44.3334 28.8156 44.1793 27.9372 43.8231 27.1312C43.4906 26.3786 43.0006 25.7421 42.4683 25.0509L42.4259 24.9959C40.073 21.939 36.0189 18.3334 30.0001 18.3334ZM19.159 26.2158C21.3316 23.3933 24.8672 20.3334 30.0001 20.3334C35.1329 20.3334 38.6686 23.3933 40.8411 26.2158C41.4259 26.9755 41.7685 27.4295 41.9937 27.9394C42.2043 28.416 42.3334 28.9986 42.3334 30C42.3334 31.0015 42.2043 31.584 41.9937 32.0607C41.7685 32.5706 41.4259 33.0246 40.8411 33.7843C38.6686 36.6068 35.1329 39.6667 30.0001 39.6667C24.8672 39.6667 21.3316 36.6068 19.159 33.7843C18.5743 33.0246 18.2317 32.5706 18.0064 32.0607C17.7959 31.584 17.6667 31.0015 17.6667 30C17.6667 28.9986 17.7959 28.416 18.0064 27.9394C18.2317 27.4295 18.5743 26.9755 19.159 26.2158Z" fill="#212C55"/>
</svg>
