<svg width="32" height="41" viewBox="0 0 32 41" fill="none" xmlns="http://www.w3.org/2000/svg">
<path d="M15.8594 0.00699284C15.7897 0.0205508 15.7216 0.0415025 15.6562 0.0694928L0.65625 5.56949C0.464089 5.63985 0.298136 5.76748 0.180785 5.93512C0.0634342 6.10277 0.000333844 6.30236 0 6.50699V23.007C0 26.9162 2.20435 30.1576 5.1719 32.9914C8.1394 35.8251 11.925 38.3329 15.4219 40.8195C15.5909 40.9392 15.7929 41.0035 16 41.0035C16.2071 41.0035 16.4091 40.9392 16.5781 40.8195C20.075 38.3329 23.8606 35.8251 26.8281 32.9914C29.7956 30.1576 32 26.9162 32 23.007V6.50699C31.9997 6.30236 31.9366 6.10277 31.8192 5.93512C31.7019 5.76748 31.5359 5.63985 31.3438 5.56949L16.3438 0.0694928C16.1899 0.00895455 16.0235 -0.012519 15.8594 0.00699284ZM16 2.06949L30 7.21012V23.007C30 26.1644 28.2278 28.9043 25.4531 31.5539C22.8292 34.0595 19.3579 36.3997 16 38.7726C12.6421 36.3997 9.17075 34.0595 6.5469 31.5539C3.7722 28.9043 2 26.1644 2 23.007V7.21012L16 2.06949Z" fill="white"/>
<path d="M16 17V27" stroke="white" stroke-width="1.5" stroke-linecap="round"/>
<path d="M16 14V13" stroke="white" stroke-width="1.5" stroke-linecap="round"/>
</svg>
