<svg width="50" height="50" viewBox="0 0 50 50" fill="none" xmlns="http://www.w3.org/2000/svg">
<g clip-path="url(#clip0_1391_16698)">
<path d="M30.1735 22.2812C28.1095 12.9141 30.2048 1.04062 30.2251 0.920312C30.2657 0.692187 30.2032 0.457813 30.0564 0.279687C29.9079 0.103125 29.6876 0 29.4564 0H20.0814C19.847 0 19.6235 0.10625 19.4735 0.289062C19.3251 0.471875 19.2673 0.7125 19.3157 0.942187C19.336 1.03594 21.2501 10.3937 19.3079 22.5328C19.2735 22.7594 19.3376 22.9891 19.4845 23.1625C19.6345 23.3375 19.8517 23.4375 20.0814 23.4375H29.4564C29.4673 23.4391 29.4798 23.4375 29.4876 23.4375C29.9189 23.4375 30.2689 23.0875 30.2689 22.6562C30.2673 22.5203 30.2345 22.3922 30.1735 22.2812ZM28.4907 21.875H20.9892C22.4407 11.9859 21.4501 4.18906 21.0157 1.5625H28.5345C28.0876 4.49531 26.9017 13.7953 28.4907 21.875Z" fill="white"/>
<path d="M19.486 49.725C19.6345 49.9 19.8517 50 20.0813 50H29.4563C29.4673 50.0016 29.4798 50 29.4876 50C29.9188 50 30.2688 49.65 30.2688 49.2188C30.2688 49.0828 30.236 48.9547 30.1735 48.8438C28.1095 39.4766 30.2048 27.6031 30.2251 27.4828C30.2657 27.2547 30.2032 27.0203 30.0563 26.8422C29.9079 26.6656 29.6876 26.5625 29.4563 26.5625H20.0813C19.847 26.5625 19.6235 26.6687 19.4735 26.8516C19.3251 27.0344 19.2673 27.275 19.3157 27.5047C19.336 27.5984 21.2501 36.9562 19.3079 49.0953C19.2735 49.3203 19.3376 49.5516 19.486 49.725ZM21.0157 28.125H28.5345C28.086 31.0578 26.9001 40.3578 28.4907 48.4375H20.9892C22.4407 38.5484 21.4517 30.7516 21.0157 28.125Z" fill="white"/>
<path d="M17.778 23.3078C17.9967 23.1625 18.128 22.9187 18.128 22.6562C18.128 22.5796 18.0421 15.0296 10.6546 12.6359C10.4358 12.564 10.2014 12.5937 10.0046 12.7125C9.8108 12.8296 9.67799 13.0281 9.64205 13.2515C9.63112 13.3171 8.66237 19.8578 17.0436 23.375C17.1421 23.4171 17.2436 23.4375 17.3467 23.4375C17.4967 23.4375 17.6483 23.3937 17.778 23.3078ZM11.1671 14.5C14.9749 16.1765 16.0952 19.5187 16.4264 21.3656C12.1092 19.1234 11.2874 16.0609 11.1671 14.5Z" fill="white"/>
<path d="M9.54516 21.5049C7.89516 21.5049 6.25297 21.9174 4.66079 22.7299C4.45766 22.833 4.31079 23.0205 4.2561 23.2424C4.20297 23.4643 4.24829 23.6971 4.3811 23.883C4.47329 24.0096 6.65766 26.9752 11.3608 26.9752C13.0561 26.9752 14.878 26.583 16.7748 25.8064C17.0155 25.708 17.1936 25.4939 17.2452 25.2377C17.2967 24.9814 17.217 24.7143 17.0311 24.5299C16.9077 24.4064 13.9561 21.5049 9.54516 21.5049ZM11.3608 25.4111C8.82485 25.4111 7.19204 24.4049 6.34672 23.6846C7.40454 23.2752 8.47485 23.0674 9.54516 23.0674C11.8998 23.0674 13.8045 24.0705 14.9014 24.8236C13.6608 25.2143 12.4748 25.4111 11.3608 25.4111Z" fill="white"/>
<path d="M31.7033 4.34989C31.4845 4.4952 31.3533 4.73895 31.3533 5.00145C31.3533 5.07802 31.4392 12.628 38.8267 15.0218C38.9064 15.0483 38.9876 15.0593 39.0673 15.0593C39.2095 15.0593 39.3501 15.0202 39.4751 14.9452C39.6689 14.8265 39.8017 14.6296 39.8376 14.4046C39.8486 14.339 40.8173 7.79833 32.4361 4.28114C32.1939 4.17645 31.922 4.20458 31.7033 4.34989ZM38.3142 13.1561C34.5064 11.4796 33.3861 8.13739 33.0548 6.29052C37.3705 8.53114 38.1939 11.5936 38.3142 13.1561Z" fill="white"/>
<path d="M40.0456 6.15161C41.8237 6.15161 43.5956 5.7438 45.3143 4.93911C45.5299 4.83911 45.6878 4.64536 45.7424 4.41411C45.7971 4.18286 45.744 3.93755 45.5971 3.75005C45.5003 3.62505 43.1362 0.682861 38.0628 0.682861C36.2315 0.682861 34.2612 1.07349 32.2081 1.84224C31.9549 1.93755 31.7674 2.15786 31.7159 2.42505C31.6643 2.69067 31.7549 2.96567 31.9549 3.15005C32.0893 3.27192 35.2846 6.15161 40.0456 6.15161C40.044 6.15161 40.044 6.15161 40.0456 6.15161ZM38.0628 2.24536C40.8346 2.24536 42.6299 3.24224 43.569 3.9688C42.4049 4.3813 41.2237 4.58911 40.044 4.58911C37.4706 4.58911 35.3831 3.5938 34.169 2.83599C35.5331 2.44224 36.8378 2.24536 38.0628 2.24536Z" fill="white"/>
</g>
<defs>
<clipPath id="clip0_1391_16698">
<rect width="50" height="50" fill="white"/>
</clipPath>
</defs>
</svg>
