<svg width="60" height="32" viewBox="0 0 60 32" fill="none" xmlns="http://www.w3.org/2000/svg">
<path d="M11.1424 13.4705C14.2092 13.4705 16.7104 10.977 16.7104 7.90251C16.7104 4.828 14.2169 2.33451 11.1424 2.33451C8.06797 2.33451 5.57442 4.82807 5.57442 7.90251C5.57442 10.977 8.07054 13.4705 11.1424 13.4705ZM11.1424 3.56829C13.5382 3.56829 15.4868 5.51682 15.4868 7.91271C15.4868 10.3085 13.5383 12.2571 11.1424 12.2571C8.74653 12.2571 6.798 10.3086 6.798 7.91271C6.798 5.51432 8.74653 3.56829 11.1424 3.56829ZM48.8639 13.4705C51.9307 13.4705 54.4319 10.977 54.4319 7.90251C54.4319 4.828 51.9384 2.33451 48.8639 2.33451C45.7971 2.33451 43.2959 4.82807 43.2959 7.90251C43.2959 10.977 45.7972 13.4705 48.8639 13.4705ZM48.8639 3.56829C51.2597 3.56829 53.2083 5.51682 53.2083 7.91271C53.2083 10.3085 51.2598 12.2571 48.8639 12.2571C46.468 12.2571 44.5195 10.3086 44.5195 7.91271C44.5195 5.51432 46.468 3.56829 48.8639 3.56829ZM59.9586 23.784C59.5704 21.144 58.2465 18.7044 56.226 16.9202C54.1849 15.1182 51.5808 14.1028 48.8739 14.0642H48.8533C45.2852 14.1157 41.9895 15.8354 39.8763 18.6914C39.4419 18.1721 38.974 17.6785 38.4625 17.2235C36.1206 15.1516 33.1181 13.9793 30.0048 13.9331H29.9842C26.8788 13.9794 23.8712 15.1516 21.5265 17.2235C21.0124 17.6785 20.5394 18.1721 20.1127 18.6914C17.9996 15.8276 14.704 14.1182 11.1357 14.0642H11.1151C8.4108 14.1028 5.79906 15.1182 3.763 16.9202C1.74248 18.7094 0.421176 21.1464 0.0304046 23.784C-0.154682 25.0488 0.367161 26.239 1.41857 26.9562C4.23597 28.8791 8.42127 29.7608 11.1174 29.7608C12.8089 29.7608 15.6521 29.3726 18.2972 28.2929C18.4488 28.4369 18.6134 28.5757 18.7984 28.7016C22.0426 30.9201 26.8732 31.933 29.9859 31.933C33.099 31.933 37.9218 30.9253 41.1734 28.7016C41.3585 28.5757 41.523 28.4394 41.6746 28.2929C44.3147 29.3726 47.163 29.7608 48.8544 29.7608C51.5536 29.7608 55.7386 28.8868 58.5532 26.9562C59.6226 26.239 60.1419 25.0539 59.9568 23.784H59.9586ZM2.12664 25.9485C1.45572 25.4884 1.13951 24.7712 1.25777 23.9615C1.97495 19.0927 6.21915 15.3603 11.1422 15.2806C14.4455 15.3321 17.4866 16.985 19.3551 19.715C18.2626 21.3345 17.5377 23.1777 17.2498 25.1185C17.1367 25.882 17.2575 26.6249 17.5711 27.2701C15.3064 28.139 12.7743 28.54 11.1419 28.54C9.04173 28.5349 4.91047 27.8457 2.12664 25.9485ZM40.499 27.6863C37.2599 29.8971 32.4506 30.6991 30.0032 30.6991C27.5557 30.6991 22.7438 29.897 19.5074 27.6863C18.7105 27.1413 18.3171 26.2442 18.4611 25.2905C19.2966 19.6042 24.2579 15.2494 30.0033 15.1573C35.7487 15.2498 40.7104 19.607 41.5455 25.2984C41.6843 26.2521 41.2958 27.1465 40.499 27.6863ZM57.879 25.9485C55.1027 27.8508 50.9691 28.5346 48.8692 28.5346C47.2368 28.5346 44.7047 28.1388 42.44 27.2647C42.7562 26.6195 42.8745 25.8766 42.7613 25.1131C42.4786 23.1723 41.7485 21.3291 40.656 19.7096C42.5248 16.9796 45.5659 15.3266 48.8689 15.2752C53.7917 15.3549 58.036 19.085 58.7534 23.9561C58.8665 24.7633 58.5448 25.4884 57.879 25.9485ZM30.0032 12.8796C33.5044 12.8796 36.3526 10.0314 36.3526 6.53014C36.3526 3.02893 33.5044 0.180664 30.0032 0.180664C26.502 0.180664 23.6537 3.02893 23.6537 6.53014C23.6537 10.0314 26.502 12.8796 30.0032 12.8796ZM30.0032 1.40194C32.8335 1.40194 35.1291 3.69754 35.1291 6.52784C35.1291 9.35813 32.8335 11.6563 30.0032 11.6563C27.1729 11.6563 24.8773 9.3607 24.8773 6.5304C24.8773 3.70011 27.1729 1.40194 30.0032 1.40194Z" fill="white"/>
</svg>
