<svg width="50" height="51" viewBox="0 0 50 51" fill="none" xmlns="http://www.w3.org/2000/svg">
<path d="M8.33983 22.1967C7.06024 23.7594 4.7565 23.9901 3.19321 22.7117L1.34034 21.1955C-0.221778 19.9165 -0.451916 17.6127 0.826498 16.0483L10.4923 4.23706C11.7707 2.67259 14.0744 2.44304 15.6377 3.72204L17.4906 5.23766C19.0539 6.51666 19.284 8.82098 18.0045 10.3843L8.33983 22.1967ZM48.7358 13.8811L37.196 3.89273C35.6692 2.57018 33.3584 2.73733 32.0376 4.26413L30.4696 6.07522C29.1488 7.60261 29.3142 9.91164 30.8422 11.2336L42.3814 21.222C43.9082 22.5439 46.219 22.3774 47.541 20.8506L49.1066 19.0406C50.4292 17.5127 50.2632 15.203 48.7358 13.8811ZM43.0371 30.2721C43.2414 32.3027 42.6404 34.2904 41.3473 35.8707L36.7198 41.5235C35.4267 43.1039 33.5956 44.0857 31.5673 44.287C30.9304 44.35 30.2983 44.3358 29.6809 44.2446C28.5155 44.0733 27.413 43.616 26.4348 42.9291L24.4907 45.3041C22.7985 47.3724 20.1028 48.4142 17.4577 48.0239C16.0957 47.8232 14.809 47.254 13.739 46.3782L8.08556 41.7496C6.50579 40.457 5.52402 38.6265 5.32096 36.5959C5.11848 34.5658 5.72002 32.577 7.01315 30.999L9.60294 27.8324C9.78717 27.607 10.0538 27.4639 10.3434 27.4351C10.6318 27.4057 10.9226 27.494 11.1468 27.6776L23.9621 38.1668C24.0416 38.2039 24.1211 38.2486 24.1923 38.3069L27.3583 40.8973C28.4849 41.819 29.901 42.2481 31.3472 42.1033C32.7945 41.9579 34.0994 41.2581 35.0205 40.1333L39.6486 34.4799C41.5509 32.1556 41.206 28.7182 38.8829 26.8159L35.595 24.2655C34.057 25.9313 32.2177 26.8483 30.1141 26.9889C26.0569 27.2603 22.1463 24.5228 20.3541 23.046C17.7778 26.7447 14.7396 26.8241 14.6006 26.8259C14.5418 26.8265 14.4847 26.8224 14.4282 26.8135C14.3016 26.7953 14.1786 26.7547 14.0662 26.6947C12.9373 26.0843 12.274 25.3297 12.0385 24.385C11.7224 23.1196 12.1939 21.631 13.57 19.5615C16.9891 14.4114 21.0133 14.4444 23.4183 14.4638C23.9692 14.4679 24.446 14.4726 24.8079 14.4196C26.4007 14.1889 27.0887 12.5491 27.0958 12.5314C27.3189 11.9688 27.9569 11.6945 28.519 11.9134C29.0823 12.1365 29.3601 12.7739 29.1364 13.3378C29.0923 13.4526 27.9875 16.1754 25.1234 16.5904C24.5961 16.6669 24.0151 16.6622 23.4 16.6575C21.0651 16.638 18.1593 16.6145 15.3964 20.7746C14.1963 22.5816 14.065 23.4468 14.1674 23.8529C14.2086 24.0236 14.327 24.2761 14.8273 24.5969C15.5147 24.4663 17.4759 23.8371 19.151 20.8311C19.3176 20.5327 19.6142 20.3291 19.9521 20.2802C20.2899 20.2314 20.6337 20.342 20.8774 20.5816C20.9233 20.6269 25.5472 25.0966 29.9734 24.7982C31.7339 24.6781 33.2053 23.827 34.4737 22.1961C34.7704 21.8164 35.266 21.6887 35.6968 21.8376C35.9211 21.8441 36.1465 21.9153 36.3372 22.0636L40.2502 25.0984C41.8529 26.4115 42.8346 28.2415 43.0371 30.2721ZM24.6885 41.5983L10.6047 30.072L8.70887 32.3898C7.78714 33.5146 7.36042 34.9314 7.50403 36.3781C7.64883 37.826 8.34925 39.1315 9.47463 40.0521L15.128 44.6807C15.8914 45.3058 16.8079 45.7114 17.7767 45.8544C19.6931 46.1363 21.5666 45.4118 22.792 43.9162L24.6885 41.5983Z" fill="white"/>
</svg>
