<svg width="50" height="50" viewBox="0 0 50 50" fill="none" xmlns="http://www.w3.org/2000/svg">
<path fill-rule="evenodd" clip-rule="evenodd" d="M25 17.1875C20.6853 17.1875 17.1875 20.6853 17.1875 25C17.1875 29.3148 20.6853 32.8125 25 32.8125C29.3148 32.8125 32.8125 29.3148 32.8125 25C32.8125 20.6853 29.3148 17.1875 25 17.1875ZM20.3125 25C20.3125 22.4112 22.4112 20.3125 25 20.3125C27.5887 20.3125 29.6875 22.4112 29.6875 25C29.6875 27.5887 27.5887 29.6875 25 29.6875C22.4112 29.6875 20.3125 27.5887 20.3125 25Z" fill="white"/>
<path fill-rule="evenodd" clip-rule="evenodd" d="M24.9478 2.604C24.022 2.60398 23.2489 2.60398 22.6143 2.64728C21.9537 2.69236 21.3297 2.78953 20.7247 3.04011C19.3209 3.62159 18.2056 4.7369 17.6241 6.14071C17.3214 6.87155 17.2394 7.64176 17.2081 8.47892C17.1829 9.1519 16.8433 9.7134 16.3421 10.0028C15.8409 10.2922 15.1848 10.3055 14.5894 9.99084C13.8487 9.59936 13.1407 9.28523 12.3564 9.18198C10.85 8.98365 9.32641 9.3919 8.12093 10.3169C7.60143 10.7155 7.20526 11.2073 6.83593 11.7569C6.48112 12.2849 6.09464 12.9543 5.63166 13.7562L5.57905 13.8474C5.11605 14.6493 4.72955 15.3187 4.44974 15.8899C4.15847 16.4846 3.93062 17.0736 3.84514 17.7228C3.6468 19.2293 4.05505 20.7528 4.98003 21.9584C5.46153 22.5857 6.08747 23.0419 6.79672 23.4875C7.36709 23.8459 7.68362 24.4209 7.68357 24.9998C7.68355 25.5786 7.36703 26.1536 6.79672 26.5119C6.08739 26.9575 5.46139 27.4138 4.97984 28.0413C4.05484 29.2467 3.64662 30.7703 3.84493 32.2767C3.93041 32.9259 4.15826 33.515 4.44953 34.1096C4.72934 34.6809 5.11584 35.3503 5.57882 36.1521L5.63145 36.2434C6.09443 37.0453 6.48091 37.7146 6.83572 38.2425C7.20505 38.7921 7.60122 39.284 8.12072 39.6825C9.3262 40.6076 10.8498 41.0159 12.3562 40.8176C13.1405 40.7142 13.8484 40.4003 14.5891 40.0088C15.1846 39.694 15.8407 39.7073 16.342 39.9969C16.8433 40.2863 17.1829 40.8478 17.2081 41.5209C17.2394 42.358 17.3214 43.1282 17.6241 43.859C18.2056 45.2628 19.3209 46.3782 20.7247 46.9596C21.3297 47.2103 21.9537 47.3073 22.6143 47.3523C23.2489 47.3957 24.022 47.3957 24.9478 47.3957H25.053C25.9791 47.3957 26.752 47.3957 27.3868 47.3523C28.0474 47.3073 28.6714 47.2103 29.2764 46.9596C30.6801 46.3782 31.7955 45.2628 32.377 43.859C32.6797 43.1282 32.7616 42.358 32.7928 41.5207C32.818 40.8478 33.1576 40.2863 33.6589 39.9967C34.1601 39.7073 34.8164 39.694 35.4118 40.0086C36.1524 40.4001 36.8603 40.7142 37.6447 40.8173C39.1512 41.0157 40.6747 40.6076 41.8801 39.6825C42.3997 39.2838 42.7957 38.7921 43.1651 38.2425C43.5199 37.7146 43.9064 37.0453 44.3693 36.2434L44.422 36.1521C44.8849 35.3503 45.2716 34.6807 45.5514 34.1094C45.8426 33.5148 46.0703 32.9259 46.156 32.2767C46.3543 30.77 45.946 29.2465 45.021 28.0411C44.5395 27.4136 43.9135 26.9575 43.2043 26.5119C42.6339 26.1536 42.3174 25.5786 42.3174 24.9996C42.3174 24.4209 42.6339 23.8461 43.2041 23.4878C43.9137 23.0421 44.5397 22.5861 45.0212 21.9584C45.9462 20.7529 46.3545 19.2294 46.1562 17.7229C46.0705 17.0737 45.8428 16.4847 45.5516 15.89C45.2718 15.3189 44.8853 14.6495 44.4222 13.8477L44.3697 13.7565C43.9066 12.9545 43.5201 12.285 43.1653 11.7571C42.796 11.2075 42.3999 10.7157 41.8803 10.317C40.6749 9.39205 39.1514 8.9838 37.6447 9.18213C36.8605 9.28538 36.1526 9.59946 35.412 9.99092C34.8166 10.3057 34.1603 10.2923 33.6591 10.0028C33.1578 9.71344 32.818 9.15186 32.7928 8.47882C32.7616 7.64167 32.6797 6.87151 32.377 6.14071C31.7955 4.7369 30.6801 3.62159 29.2764 3.04011C28.6714 2.78953 28.0474 2.69236 27.3868 2.64728C26.752 2.60398 25.9791 2.60398 25.053 2.604H24.9478ZM21.9205 5.92723C22.0814 5.86065 22.3255 5.79926 22.827 5.76503C23.3426 5.72986 24.0084 5.72901 25.0005 5.72901C25.9926 5.72901 26.6584 5.72986 27.1739 5.76503C27.6755 5.79926 27.9197 5.86065 28.0803 5.92723C28.7185 6.19155 29.2255 6.69851 29.4897 7.33661C29.5732 7.53788 29.6422 7.85165 29.6701 8.59561C29.7318 10.2464 30.5839 11.8359 32.0966 12.7092C33.6091 13.5825 35.4118 13.5257 36.8722 12.7538C37.5303 12.4059 37.8368 12.3088 38.0526 12.2804C38.7374 12.1903 39.4299 12.3758 39.9778 12.7963C40.116 12.9022 40.2912 13.0829 40.5716 13.5002C40.8599 13.9291 41.1935 14.5053 41.6895 15.3644C42.1855 16.2236 42.5178 16.8006 42.7451 17.2647C42.9662 17.7161 43.0351 17.9583 43.0578 18.1308C43.148 18.8156 42.9624 19.5081 42.542 20.056C42.4093 20.2289 42.1722 20.4457 41.5416 20.8417C40.143 21.7207 39.1926 23.2532 39.1924 24.9996C39.1924 26.7463 40.1428 28.279 41.5416 29.158C42.172 29.554 42.4091 29.7707 42.5418 29.9436C42.9622 30.4915 43.1478 31.184 43.0576 31.8688C43.0349 32.0413 42.966 32.2834 42.7449 32.7348C42.5176 33.1988 42.1853 33.7759 41.6893 34.635C41.1932 35.4942 40.8597 36.0705 40.5714 36.4994C40.291 36.9165 40.1157 37.0973 39.9776 37.2032C39.4297 37.6238 38.7372 37.8092 38.0524 37.7192C37.8366 37.6907 37.5301 37.5936 36.872 37.2459C35.4116 36.4738 33.6089 36.4171 32.0962 37.2905C30.5839 38.1638 29.7318 39.7532 29.6701 41.404C29.6422 42.148 29.5732 42.4617 29.4897 42.6632C29.2255 43.3011 28.7185 43.8082 28.0803 44.0725C27.9197 44.139 27.6755 44.2005 27.1739 44.2346C26.6584 44.2698 25.9926 44.2707 25.0005 44.2707C24.0084 44.2707 23.3426 44.2698 22.827 44.2346C22.3255 44.2005 22.0814 44.139 21.9205 44.0725C21.2826 43.8082 20.7756 43.3011 20.5112 42.6632C20.4279 42.4617 20.3588 42.148 20.3309 41.404C20.2692 39.7534 19.4171 38.1638 17.9045 37.2905C16.3919 36.4171 14.5893 36.474 13.1288 37.2459C12.4706 37.5938 12.1643 37.6909 11.9483 37.7192C11.2636 37.8094 10.5711 37.6238 10.0231 37.2034C9.88507 37.0975 9.7098 36.9167 9.42941 36.4994C9.14118 36.0707 8.80753 35.4944 8.31149 34.6353C7.81543 33.7761 7.48326 33.199 7.25595 32.735C7.03482 32.2836 6.96591 32.0413 6.9432 31.8688C6.85305 31.184 7.03862 30.4915 7.45907 29.9436C7.5917 29.7709 7.82889 29.554 8.45928 29.158C9.85799 28.2792 10.8085 26.7465 10.8086 25C10.8087 23.2532 9.85814 21.7205 8.4593 20.8415C7.82905 20.4454 7.59189 20.2287 7.45926 20.0559C7.03882 19.508 6.85326 18.8154 6.94341 18.1307C6.96612 17.9582 7.03503 17.716 7.25616 17.2646C7.48347 16.8005 7.81564 16.2235 8.31168 15.3643C8.80774 14.5051 9.14137 13.9289 9.42962 13.5C9.71001 13.0828 9.88528 12.902 10.0233 12.7961C10.5713 12.3757 11.2638 12.1901 11.9485 12.2803C12.1646 12.3087 12.4709 12.4057 13.1291 12.7537C14.5896 13.5256 16.392 13.5824 17.9046 12.7091C19.4172 11.8358 20.2692 10.2464 20.3309 8.59571C20.3588 7.85169 20.4279 7.5379 20.5112 7.33661C20.7756 6.69851 21.2826 6.19155 21.9205 5.92723Z" fill="white"/>
</svg>
