<svg width="80" height="80" viewBox="0 0 80 80" fill="none" xmlns="http://www.w3.org/2000/svg">
<path d="M6.66739 66.6667H13.3341M13.3341 66.6667H46.6674M13.3341 66.6667V20.6673C13.3341 16.9336 13.3341 15.0654 14.0607 13.6393C14.6998 12.3849 15.719 11.3658 16.9734 10.7266C18.3995 10 20.2677 10 24.0014 10H36.0014C39.7351 10 41.5994 10 43.0254 10.7266C44.2797 11.3658 45.3024 12.3849 45.9414 13.6393C46.6674 15.064 46.6674 16.93 46.6674 20.6564V40M46.6674 66.6667H66.6674M46.6674 66.6667V40M46.6674 40C46.6674 36.8937 46.6674 35.3413 47.1747 34.1163C47.8514 32.4827 49.1484 31.1841 50.7821 30.5075C52.0071 30 53.5604 30 56.6664 30C59.7727 30 61.3277 30 62.5527 30.5075C64.1864 31.1841 65.4831 32.4827 66.1597 34.1163C66.6671 35.3413 66.6674 36.8937 66.6674 40V66.6667M66.6674 66.6667H73.3341M23.3341 33.3333H36.6674M23.3341 23.3333H36.6674" stroke="#212C55" stroke-width="2.5" stroke-linecap="round" stroke-linejoin="round"/>
</svg>
